# xmcd
#
# Track frame offsets:
#	150
#	16875
#	31641
#	47497
#	65416
#	81027
#	94016
#	111356
#	125407
#	142643
#	158001
#	175476
#	188121
#	204677
#	221571
#	237605
#	255801
#	267744
#	283363
#	297704
#
# Disc length: 4157 seconds
#
# Revision: 0
# Processed by: cddbd v1.5.2PL0 Copyright (c) Steve Scherf et al.
# Submitted via: EasyCDDAExtractor 11.5.0.1
#
DISCID=26103b14
DTITLE=Various Artist - NCT 129
DYEAR=2009
DGENRE=Country
TTITLE0=Taylor Swift - Fearless
TTITLE1=Burns and Poe - Don't Get No Better Than That
TTITLE2=Lady Antebellum - American Honey
TTITLE3=Mark Wills - Crazy White Boy
TTITLE4=Alan Jackson - It's Just That Way
TTITLE5=Cody McCarver - White Trash With Money
TTITLE6=Zac Brown Band - Highway 20 Ride
TTITLE7=Danny Gokey - My Best Days Are Ahead Of Me
TTITLE8=Rascal Flatts - Unstoppable
TTITLE9=Megan Mullins - Tradin' My Halo For Horns
TTITLE10=Trace Adkins - Ala-Freakin-Bama
TTITLE11=Jordan Carter - John Deere Letter
TTITLE12=Martina McBride - Wrong Baby Wrong Baby Wrong
TTITLE13=Chad Brownlee - Best That I Can (Superhero)
TTITLE14=Uncle Kracker - Smile (Country Version)
TTITLE15=James Wesley - Jackson Hole
TTITLE16=Keni Thomas - Gunslinger
TTITLE17=Amanda Henkel - Break My Stride
TTITLE18=Anna Garrott - What A Way To Go
TTITLE19=Jaron And The Road To Love - Pray For You
EXTD=
EXTT0=
EXTT1=
EXTT2=
EXTT3=
EXTT4=
EXTT5=
EXTT6=
EXTT7=
EXTT8=
EXTT9=
EXTT10=
EXTT11=
EXTT12=
EXTT13=
EXTT14=
EXTT15=
EXTT16=
EXTT17=
EXTT18=
EXTT19=
PLAYORDER=
